<?xml version="1.0" encoding="UTF-8" standalone="no"?>
<svg
   viewBox="0 0 48 48"
   version="1.1"
   id="svg3"
   sodipodi:docname="fail_alt.svg"
   xml:space="preserve"
   inkscape:version="1.3.2 (091e20ef0f, 2023-11-25, custom)"
   width="48"
   height="48"
   xmlns:inkscape="http://www.inkscape.org/namespaces/inkscape"
   xmlns:sodipodi="http://sodipodi.sourceforge.net/DTD/sodipodi-0.dtd"
   xmlns="http://www.w3.org/2000/svg"
   xmlns:svg="http://www.w3.org/2000/svg"
   xmlns:rdf="http://www.w3.org/1999/02/22-rdf-syntax-ns#"
   xmlns:cc="http://creativecommons.org/ns#"
   xmlns:dc="http://purl.org/dc/elements/1.1/"><defs
     id="defs3" /><sodipodi:namedview
     id="namedview3"
     pagecolor="#ffffff"
     bordercolor="#000000"
     borderopacity="0.25"
     inkscape:showpageshadow="2"
     inkscape:pageopacity="0.0"
     inkscape:pagecheckerboard="0"
     inkscape:deskcolor="#d1d1d1"
     inkscape:zoom="14.629064"
     inkscape:cx="7.5534565"
     inkscape:cy="22.899619"
     inkscape:window-width="2560"
     inkscape:window-height="1414"
     inkscape:window-x="0"
     inkscape:window-y="0"
     inkscape:window-maximized="1"
     inkscape:current-layer="svg3" /><title
     id="title1">file_type_vscode</title><path
     d="M 44.225409,6.7077991 35.343594,2.352495 a 2.6833371,2.7330474 0 0 0 -3.06381,0.5302928 L 3.2051635,29.880652 a 1.7960798,1.8293533 0 0 0 -0.1232302,2.584001 c 0.038509,0.04236 0.077019,0.08315 0.118609,0.120807 l 2.3737213,2.196479 a 1.7945395,1.8277843 0 0 0 2.2936217,0.103548 L 42.888362,7.8374169 a 1.7837568,1.8168019 0 0 1 2.86202,1.4465383 V 9.178838 A 2.6925794,2.7424609 0 0 0 44.225409,6.7077991 Z"
     style="fill:#0065a9;stroke-width:1.55458"
     id="path1" /><path
     d="m 44.225409,41.129763 -8.881815,4.356873 a 2.6879583,2.7377542 0 0 1 -3.06381,-0.530292 L 3.2051635,17.95691 A 1.7960798,1.8293533 0 0 1 3.0819333,15.372909 c 0.038509,-0.04237 0.077019,-0.08315 0.118609,-0.120807 l 2.3737213,-2.196479 a 1.7945395,1.8277843 0 0 1 2.2982429,-0.103548 l 35.0158555,27.04807 a 1.7837568,1.8168019 0 0 0 2.86202,-1.446538 v 0.112962 a 2.6941198,2.7440299 0 0 1 -1.524973,2.463194 z"
     style="fill:#007acc;stroke-width:1.55458"
     id="path2" /><path
     d="m 35.343594,45.486636 a 2.6879583,2.7377542 0 0 1 -3.06381,-0.530292 1.5788867,1.6081364 0 0 0 2.687958,-1.137464 V 4.0186812 a 1.5773463,1.6065675 0 0 0 -2.69412,-1.1358934 2.6864179,2.7361852 0 0 1 3.06381,-0.5318617 l 8.880275,4.3490285 a 2.6925794,2.7424609 0 0 1 1.532675,2.4710388 V 38.666569 a 2.6925794,2.7424609 0 0 1 -1.526513,2.472608 z"
     style="fill:#1f9cf0;stroke-width:1.55458"
     id="path3" /><style
     type="text/css"
     id="current-color-scheme">.ColorScheme-NeutralText { color: #f67400; } </style><g
     transform="matrix(1.6821405,0,0,1.4090542,-4.3224624,19.451094)"
     id="g2"><path
       class="ColorScheme-NeutralText"
       d="m 11.006318,3.0000261 a 0.72728737,0.72727154 0 0 0 -0.65674,0.4021811 L 3.0767042,17.947638 A 0.72728737,0.72727154 0 0 0 3.7276264,19 H 18.273374 a 0.72728737,0.72727154 0 0 0 0.650922,-1.052362 L 11.651422,3.4022072 A 0.72728737,0.72727154 0 0 0 11.006318,3.0000261 Z"
       fill="currentColor"
       id="path1-3"
       style="fill:#ff0000" /><path
       d="m 10,7 v 5 h 2 V 7 Z m 0,7 v 2 h 2 v -2 z"
       fill="#ffffff"
       id="path2-6" /></g><metadata
     id="metadata3"><rdf:RDF><cc:Work
         rdf:about=""><dc:title>file_type_vscode</dc:title></cc:Work></rdf:RDF></metadata></svg>
